<?xml version="1.0" standalone="no"?>
<!DOCTYPE svg PUBLIC "-//W3C//DTD SVG 20010904//EN"
 "http://www.w3.org/TR/2001/REC-SVG-20010904/DTD/svg10.dtd">
<svg version="1.0" xmlns="http://www.w3.org/2000/svg"
 width="256.000000pt" height="256.000000pt" viewBox="0 0 256.000000 256.000000"
 preserveAspectRatio="xMidYMid meet">

<g transform="translate(0.000000,256.000000) scale(0.100000,-0.100000)"
fill="#000000" stroke="none">
<path d="M1267 2448 c-89 -144 -288 -511 -283 -523 4 -12 25 -15 106 -15 55 0
100 -3 100 -7 0 -5 -13 -30 -28 -58 -20 -36 -34 -51 -52 -53 -94 -12 -266 -82
-368 -150 l-61 -40 -16 56 c-56 204 -178 407 -308 512 -116 94 -301 171 -333
138 -37 -37 -25 -284 22 -447 58 -197 179 -389 314 -496 27 -22 50 -43 50 -46
0 -4 -16 -35 -35 -69 -65 -114 -96 -222 -102 -345 -4 -83 -1 -126 11 -175 50
-202 199 -380 416 -498 178 -96 348 -136 580 -136 182 0 270 13 420 66 297
104 513 317 576 568 12 49 15 92 11 175 -6 123 -37 231 -102 345 -19 34 -35
65 -35 70 0 4 11 15 23 23 87 57 222 229 283 362 71 154 113 367 100 513 -8
101 -16 108 -96 88 -255 -65 -474 -317 -565 -648 l-16 -56 -61 40 c-74 49
-182 100 -262 123 -49 14 -57 20 -45 29 69 51 259 233 257 245 -3 13 -23 17
-111 19 -59 1 -107 6 -107 10 0 4 65 86 145 182 98 118 145 182 143 195 -3 19
-12 20 -280 23 l-277 2 -14 -22z m441 -90 c-194 -230 -259 -313 -256 -327 3
-13 20 -17 101 -19 53 -1 97 -6 97 -10 0 -5 -49 -51 -108 -104 l-108 -96 -107
5 c-59 3 -107 8 -107 10 0 2 11 26 25 53 29 57 32 85 9 94 -9 3 -54 6 -100 6
-46 0 -84 3 -84 6 0 3 55 102 121 220 l122 214 220 0 219 0 -44 -52z m-1307
-315 c100 -110 203 -328 224 -475 4 -26 13 -53 21 -59 17 -14 44 -5 44 15 0
19 119 97 213 141 129 60 224 80 377 80 153 0 248 -20 377 -80 94 -44 213
-122 213 -141 0 -20 27 -29 44 -15 8 6 17 33 21 59 9 64 58 208 95 282 48 94
140 220 162 220 4 0 8 -28 8 -62 1 -115 51 -178 143 -178 19 0 48 -3 65 -6 36
-7 35 -11 -25 -129 -71 -141 -170 -255 -286 -329 -64 -41 -70 -48 -61 -71 5
-12 14 -15 35 -11 25 5 30 0 62 -58 63 -114 88 -200 94 -316 7 -132 -6 -198
-60 -303 -102 -199 -324 -354 -607 -425 -93 -23 -124 -26 -280 -26 -156 0
-187 3 -280 26 -283 71 -505 226 -607 425 -54 105 -67 171 -60 303 6 116 31
202 94 316 32 58 37 63 62 58 21 -4 30 -1 35 11 9 23 3 30 -61 71 -116 74
-215 188 -286 329 -60 118 -61 122 -25 129 17 3 46 6 65 6 92 0 142 63 143
178 0 34 4 62 8 62 5 0 20 -12 33 -27z"/>
<path d="M775 1343 c-11 -2 -30 -6 -42 -9 -30 -6 -90 -60 -109 -97 -19 -36
-21 -125 -4 -158 36 -70 101 -112 175 -112 106 0 188 82 188 188 0 56 -12 85
-52 128 -41 46 -105 70 -156 60z m-28 -119 c8 -22 -10 -49 -32 -49 -22 0 -40
27 -32 49 8 21 56 21 64 0z"/>
<path d="M1717 1335 c-85 -22 -138 -91 -139 -179 -1 -57 11 -86 51 -129 38
-42 79 -60 136 -60 106 0 188 82 188 188 0 56 -12 85 -52 128 -50 55 -110 72
-184 52z m0 -111 c8 -22 -10 -49 -32 -49 -22 0 -40 27 -32 49 8 21 56 21 64 0z"/>
<path d="M1176 1024 c-8 -21 7 -38 44 -54 57 -24 29 -100 -36 -100 -37 0 -47
8 -65 45 -19 39 -53 41 -57 3 -9 -81 109 -138 189 -91 27 16 31 16 58 0 80
-47 198 10 189 91 -4 38 -38 36 -57 -3 -18 -38 -28 -45 -67 -45 -63 0 -90 77
-34 100 37 16 52 33 44 54 -9 24 -199 24 -208 0z"/>
<path d="M610 933 c-49 -18 -90 -83 -90 -143 0 -33 7 -48 38 -82 33 -35 45
-41 88 -45 58 -5 103 18 134 69 64 105 -53 244 -170 201z"/>
<path d="M1829 917 c-65 -43 -86 -124 -49 -185 31 -51 76 -74 134 -69 43 4 55
10 88 45 32 35 38 48 38 84 0 113 -121 185 -211 125z"/>
</g>
</svg>
